<?xml version="1.0" encoding="utf-8"?>
<!-- Generator: Adobe Illustrator 16.0.3, SVG Export Plug-In . SVG Version: 6.00 Build 0)  -->
<!DOCTYPE svg PUBLIC "-//W3C//DTD SVG 1.1//EN" "http://www.w3.org/Graphics/SVG/1.1/DTD/svg11.dtd">
<svg version="1.1" id="Layer_1" xmlns="http://www.w3.org/2000/svg" xmlns:xlink="http://www.w3.org/1999/xlink" x="0px" y="0px"
	 width="512px" height="512px" viewBox="0 0 512 512" enable-background="new 0 0 512 512" xml:space="preserve">
<g>
	<defs>
		<rect id="SVGID_1_" width="512" height="512"/>
	</defs>
	<clipPath id="SVGID_2_">
		<use xlink:href="#SVGID_1_"  overflow="visible"/>
	</clipPath>
	<path clip-path="url(#SVGID_2_)" fill-rule="evenodd" clip-rule="evenodd" fill="#B2001E" d="M321.6,438.4l-3.199,12L312,449.6v-4
		c-3.2-1.6-6.4-2.399-10.4-2.399c-13.6,0-20,16.8-20,28c0,8.8,4.801,12.8,13.601,12.8h2.399l1.601-8v-3.2L296,472l0.8-7.2H320
		l-1.6,7.2l-3.2,0.8L313.6,476l-2.399,12.8c-7.2,2.4-13.601,3.2-20.8,3.2c-12.801,0-22.4-5.6-23.2-19.2l2.399-3.2
		c1.601-1.6,3.2-4,4-6.399c1.601-2.4,2.4-5.601,2.4-8.8c0-1.601,0-3.2-0.8-4.801c0.8-1.6,3.2-3.199,3.2-3.199
		C285.6,439.2,293.6,436,304,436C309.6,436,316,436.8,321.6,438.4"/>
</g>
<g>
	<defs>
		<rect id="SVGID_3_" width="512" height="512"/>
	</defs>
	<clipPath id="SVGID_4_">
		<use xlink:href="#SVGID_3_"  overflow="visible"/>
	</clipPath>
	<polyline clip-path="url(#SVGID_4_)" fill-rule="evenodd" clip-rule="evenodd" fill="#111516" points="56.8,484 64,484 82.4,456 
		82.4,456.8 77.6,480.8 76.8,484 74.4,484 72,491.2 92.8,491.2 93.6,484 90.4,484 91.2,480.8 97.6,448 98.4,445.6 101.6,444.8 
		104,437.6 87.2,437.6 65.6,468.8 57.6,437.6 39.2,437.6 38.4,444.8 41.6,445.6 40.8,448 34.4,480.8 33.6,484 30.4,484 28,491.2 
		44.8,491.2 45.6,484 44,484 44,480.8 49.6,455.2 56.8,484 	"/>
</g>
<g>
	<defs>
		<rect id="SVGID_5_" width="512" height="512"/>
	</defs>
	<clipPath id="SVGID_6_">
		<use xlink:href="#SVGID_5_"  overflow="visible"/>
	</clipPath>
	<path clip-path="url(#SVGID_6_)" fill-rule="evenodd" clip-rule="evenodd" fill="#111516" d="M120.8,457.6
		c4.8,0,5.6,5.601,5.6,8.801c0,5.6-3.2,19.199-10.4,19.199c-4.8,0-5.6-5.6-5.6-8.8C110.4,470.4,113.6,457.6,120.8,457.6z
		 M112.8,492.8c8,0,15.2-3.2,20.8-9.6c4.8-4.8,8.8-12.8,8.8-20c0-4-2.4-8-5.6-10.4c-3.2-1.6-7.2-2.399-11.2-2.399
		c-8,0-15.2,3.199-20,9.6c-4.8,4.8-8.8,12.8-8.8,20c0,4,2.4,8,5.6,10.4C104,492,108.8,492.8,112.8,492.8"/>
</g>
<g>
	<defs>
		<rect id="SVGID_7_" width="512" height="512"/>
	</defs>
	<clipPath id="SVGID_8_">
		<use xlink:href="#SVGID_7_"  overflow="visible"/>
	</clipPath>
	<path clip-path="url(#SVGID_8_)" fill-rule="evenodd" clip-rule="evenodd" fill="#111516" d="M162.4,450.4l-18.4,0.8l-0.8,7.2
		l3.2,0.8l-0.8,3.2l-4,19.199l-2.4,10.4h15.2l3.2-13.6c1.6-3.2,9.6-15.2,12.8-15.2c0.8,0,1.6,0.8,0.8,4L168,481.6l-2.4,10.4h19.2
		l0.8-7.2l-3.2-0.8v-3.2l3.2-17.6c1.6-9.601-0.8-12.8-6.4-12.8c-8.8,0-16.8,10.399-20,18.399h-0.8L162.4,450.4"/>
</g>
<g>
	<defs>
		<rect id="SVGID_9_" width="512" height="512"/>
	</defs>
	<clipPath id="SVGID_10_">
		<use xlink:href="#SVGID_9_"  overflow="visible"/>
	</clipPath>
	<path clip-path="url(#SVGID_10_)" fill-rule="evenodd" clip-rule="evenodd" fill="#111516" d="M200.8,470.4c0.8-4,4-12,8-12
		c2.4,0,3.2,1.6,3.2,4c0,2.399-1.6,4.8-4,6.399C206.4,470.4,203.2,470.4,200.8,470.4z M225.6,478.4c-5.6,2.399-12,5.6-18.4,5.6
		c-4,0-7.2-1.6-7.2-6.4c10.4,0,25.6-6.399,25.6-18.399c0-3.2-1.6-4.8-3.2-6.4c-2.4-1.6-4.8-2.399-8-2.399c-7.2,0-14.4,3.199-20,8.8
		c-4.8,4.8-8.8,12.8-8.8,20c0,9.6,8.8,13.6,16.8,13.6c7.2,0,14.4-1.6,21.6-4.8L225.6,478.4"/>
</g>
<g>
	<defs>
		<rect id="SVGID_11_" width="512" height="512"/>
	</defs>
	<clipPath id="SVGID_12_">
		<use xlink:href="#SVGID_11_"  overflow="visible"/>
	</clipPath>
	<path clip-path="url(#SVGID_12_)" fill-rule="evenodd" clip-rule="evenodd" fill="#B2001E" d="M340.8,450.4l-18.399,0.8l-0.801,7.2
		l3.2,0.8v1.6L320,480l-3.2,12H332l3.2-14.4c3.2-4.8,8.8-14.399,15.2-14.399c1.6,0,2.399,0.8,4,1.6l4.8-12.8
		c-0.8-0.8-2.4-0.8-3.2-0.8c-8,0-16,11.2-19.2,17.6H336L340.8,450.4"/>
</g>
<g>
	<defs>
		<rect id="SVGID_13_" width="512" height="512"/>
	</defs>
	<clipPath id="SVGID_14_">
		<use xlink:href="#SVGID_13_"  overflow="visible"/>
	</clipPath>
	<path clip-path="url(#SVGID_14_)" fill-rule="evenodd" clip-rule="evenodd" fill="#B2001E" d="M380,465.6c-2.4,3.2-9.6,16-13.6,16
		c-1.601,0-1.601-1.6-1.601-2.399c0-4,2.4-9.601,4-13.601c1.601-3.199,4-8,8.8-8c1.601,0,3.2,0.801,4.801,1.601L380,465.6z
		 M374.4,492l18.399-0.8l0.8-7.2l-3.199-0.8V480l4-18.4l3.199-12L387.2,450.4H385.6L378.4,449.6c-8.801,0-15.2,4.801-20,11.2
		C353.6,466.4,349.6,474.4,349.6,481.6c0,4.801,3.2,10.4,8,10.4c8.801,0,16.801-10.4,20-17.6h0.801L374.4,492"/>
</g>
<g>
	<defs>
		<rect id="SVGID_15_" width="512" height="512"/>
	</defs>
	<clipPath id="SVGID_16_">
		<use xlink:href="#SVGID_15_"  overflow="visible"/>
	</clipPath>
	<path clip-path="url(#SVGID_16_)" fill-rule="evenodd" clip-rule="evenodd" fill="#B2001E" d="M418.4,450.4l-17.601,0.8l-0.8,7.2
		l3.2,0.8v3.2l-4,19.199l-2.4,10.4H410.4l3.199-15.2l0.801-0.8c1.6-3.2,8.8-13.6,12-13.6c0.8,0,1.6,0,0.8,4.8l-3.2,13.6l-2.4,10.4
		H435.2l3.2-15.2l0.8-0.8c1.6-3.2,8.8-13.601,12-13.601c1.6,0,1.6,0.801,0.8,4.801l-4,14.399l-2.4,10.4H463.2l0.8-7.2l-3.2-0.8V480
		l4-17.6c0-1.601,0.8-3.2,0.8-4.801c0-4-2.399-8-6.399-8c-4.8,0-9.601,3.2-12.8,7.2c-3.2,3.2-4.801,7.2-7.2,11.2h-0.8l1.6-5.6
		c0-1.601,0.8-3.2,0.8-4.801c0-4-2.399-7.199-6.399-7.199c-4.801,0-9.601,4-12.801,7.199c-3.199,3.2-4.8,7.2-6.399,11.2h-0.8
		L418.4,450.4"/>
</g>
<g>
	<defs>
		<rect id="SVGID_17_" width="512" height="512"/>
	</defs>
	<clipPath id="SVGID_18_">
		<use xlink:href="#SVGID_17_"  overflow="visible"/>
	</clipPath>
	<path clip-path="url(#SVGID_18_)" fill-rule="evenodd" clip-rule="evenodd" fill="#111516" d="M252.8,451.2c2.4,2.399,4,5.6,4,8.8
		c0,6.4-6.4,12-10.4,16.8c-0.8-8.8-2.4-17.6-5.6-26.399l-15.2,0.8l-0.8,7.2l3.2,0.8c4,10.399,6.4,21.6,6.4,32l-1.6,1.6
		c-4.8,4.8-9.6,10.4-15.2,14.4l15.2-0.8c4.8-8.801,11.2-16,17.6-23.2l4-4.8l9.6-11.2c2.4-3.2,5.6-7.2,5.6-12c0-1.601-0.8-3.2-0.8-4
		H252.8"/>
</g>
<g>
	<defs>
		<rect id="SVGID_19_" width="512" height="512"/>
	</defs>
	<clipPath id="SVGID_20_">
		<use xlink:href="#SVGID_19_"  overflow="visible"/>
	</clipPath>
	<path clip-path="url(#SVGID_20_)" fill-rule="evenodd" clip-rule="evenodd" fill="#B2001E" d="M477.6,480.8
		c-4,0-6.399,3.2-6.399,6.4c0,4,3.2,6.399,6.399,6.399c4,0,6.4-3.199,6.4-6.399S480.8,480.8,477.6,480.8z M477.6,482.4
		c3.2,0,5.601,2.399,5.601,5.6s-2.4,5.6-5.601,5.6c-3.199,0-5.6-2.399-5.6-5.6S474.4,482.4,477.6,482.4z M478.4,486.4
		c0,0.8-0.801,1.6-1.601,1.6H476v-2.4h0.8C478.4,484.8,478.4,485.6,478.4,486.4z M480,491.2l-1.6-2.4c0-0.8-0.801-0.8-0.801-0.8
		c1.601,0,2.4-0.8,2.4-2.4c0-0.8-0.8-1.6-2.4-1.6H475.2v7.2h0.8V488l2.4,3.2H480"/>
</g>
<g>
	<defs>
		<rect id="SVGID_21_" width="512" height="512"/>
	</defs>
	<clipPath id="SVGID_22_">
		<use xlink:href="#SVGID_21_"  overflow="visible"/>
	</clipPath>
	<path clip-path="url(#SVGID_22_)" fill-rule="evenodd" clip-rule="evenodd" fill="#EB1C2E" d="M416,348c-12,0-21.6,9.6-21.6,21.6
		S403.2,391.2,416,391.2c11.2,0,21.6-9.601,21.6-21.601C437.6,356.8,428,348,416,348z M416,352c9.6,0,16.8,8,16.8,17.6
		c0,9.601-7.2,16.801-16.8,16.801s-16.8-8-16.8-17.601C399.2,359.2,406.4,352,416,352z M420,363.2c0,1.6-1.6,4-5.6,4H412.8v-8h3.2
		C419.2,360,420,360.8,420,363.2z M424.8,380.8l-5.6-8c-0.8-1.6-1.601-2.399-2.4-3.2c4,0,6.4-3.199,6.4-7.199
		c0-3.2-2.4-5.601-8-5.601H408v24h4V370.4l7.2,10.399H424.8"/>
</g>
<g>
	<defs>
		<rect id="SVGID_23_" width="512" height="512"/>
	</defs>
	<clipPath id="SVGID_24_">
		<use xlink:href="#SVGID_23_"  overflow="visible"/>
	</clipPath>
	<path clip-path="url(#SVGID_24_)" fill-rule="evenodd" clip-rule="evenodd" fill="#B2001E" d="M344.8,306.4l-1.6,14.399
		c-0.8,5.601-2.4,5.601-8,5.601C294.4,324,248,292.8,248,292.8c72.8-11.2,121.6-59.2,121.6-59.2C387.2,216,379.2,232,378.4,236
		c-2.4,6.4-21.601,40.8-21.601,40.8c60-10.399,75.2-53.6,75.2-53.6C412,284.8,344.8,306.4,344.8,306.4z M187.2,272.8
		c-48-5.6-88-36-94.4-73.6c-4-20.8,6.4-44,23.2-62.4c-15.2,19.2-21.6,40-16.8,60.8c11.2,48.8,84.8,73.6,164.8,55.2
		c64-14.4,112-52.8,123.2-92c-4,20.8-17.601,41.6-37.601,60l-0.8,0.8c-4,15.2-10.399,23.2-10.399,23.2l-8,4.8c0,0,4-7.2,7.199-19.2
		c-26.399,20-60.8,36-97.6,42.4c-12,2.4-23.2,3.2-33.6,3.2c17.6,44,48.8,80.8,92,96C242.4,355.2,206.4,316,187.2,272.8z M180,99.2
		L164.8,76c-1.6-4-1.6-4.8,4-4.8c14.4,0.8,32.8,4.8,32.8,4.8c15.2-20,33.6-33.6,54.4-36.8c24-4,49.6,7.2,70.4,26.4
		c-21.601-16.8-45.601-24.8-68-19.2C196.8,61.6,172.8,155.2,196.8,241.6c0,0-8,0.8-19.2-2.4c-11.2-49.6-8-86.4,0.8-116
		c-47.2,8-58.4,34.4-64.8,44.8C129.6,112.8,180,99.2,180,99.2z M201.6,146.4C206.4,108,220.8,88,224.8,84C260,94.4,296,112,296,112
		C261.6,110.4,225.6,128.8,201.6,146.4z M414.4,165.6c1.6,13.6-4,27.2-15.2,39.2c10.399-12,15.2-25.6,12-38.4
		c-4.8-24-31.2-40-66.4-42.4c3.2,8,5.601,16.8,6.4,25.6c3.2,20,1.6,34.4,0,51.2c0,0-4.8,4.8-8,6.4c2.399-14.4,4-32,1.6-52
		c-0.8-10.4-4-21.6-8-32c-8.8,0-17.6,0.8-27.2,2.4c-41.6,8-76,32-84,56.8c3.2-28.8,50.4-58.4,97.6-65.6c4-0.8,7.2-0.8,10.399-0.8
		c-8.8-18.4-24-32.8-44.8-34.4c-8-0.8-14.399,1.6-17.6,3.2L268,84c4-2.4,12-6.4,22.4-6.4c24,0,41.6,17.6,52,38.4
		C383.2,116,410.4,136.8,414.4,165.6z M264.8,4.8C157.6,4.8,70.4,92,70.4,199.2S157.6,392.8,264,392.8
		c107.2,0,193.6-87.2,193.6-193.6C458.4,92,371.2,4.8,264.8,4.8z"/>
</g>
<g>
	<defs>
		<rect id="SVGID_25_" width="512" height="512"/>
	</defs>
	<clipPath id="SVGID_26_">
		<use xlink:href="#SVGID_25_"  overflow="visible"/>
	</clipPath>
	<path clip-path="url(#SVGID_26_)" fill-rule="evenodd" clip-rule="evenodd" fill="#CC0224" d="M180,99.2L164.8,76
		c-1.6-4-1.6-4.8,4-4.8c14.4,0.8,32.8,4.8,32.8,4.8c15.2-20,33.6-33.6,54.4-36.8c24-4,49.6,7.2,70.4,26.4
		c-21.601-16.8-45.601-24.8-68-19.2C196.8,61.6,172.8,155.2,196.8,241.6c0,0-8,0.8-19.2-2.4c-11.2-49.6-8-86.4,0.8-116
		c-47.2,8-58.4,34.4-64.8,44.8C129.6,112.8,180,99.2,180,99.2z M341.6,116c41.601,0,68.801,20.8,72.801,48.8
		c1.6,13.6-4,27.2-15.2,39.2c10.399-12,15.2-25.6,12-38.4c-4.8-24-31.2-40-66.4-42.4c3.2,8,5.601,16.8,6.4,25.6
		c3.2,20,1.6,34.4,0,51.2c0,0-4.8,4.8-8,6.4c2.399-14.4,4-32,1.6-52c-0.8-10.4-4-21.6-8-32c-8.8,0-17.6,0.8-27.2,2.4
		c-41.6,8-76,32-84,56.8c3.2-28.8,50.4-58.4,97.6-65.6c4-0.8,7.2-0.8,10.399-0.8c-8.8-18.4-24-32.8-44.8-34.4
		c-8-0.8-14.399,1.6-17.6,3.2l-3.2-0.8c4-2.4,12-6.4,22.4-6.4C312.8,77.6,331.2,95.2,341.6,116z M201.6,146.4
		C206.4,108,220.8,88,224.8,84C260,94.4,296,112,296,112C261.6,110.4,225.6,128.8,201.6,146.4z M232,335.2
		c-20-17.601-35.2-39.2-44.8-62.4c-48-5.6-88-36-94.4-73.6c-4-20.8,6.4-44,23.2-62.4c-15.2,19.2-21.6,40-16.8,60.8
		c11.2,48.8,84.8,73.6,164.8,55.2c64-14.4,112-52.8,123.2-92c-4,20.8-17.601,41.6-37.601,60l-0.8,0.8
		c-4,15.2-10.399,23.2-10.399,23.2l-8,4.8c0,0,4-7.2,7.199-19.2c-26.399,20-60.8,36-97.6,42.4c-12,2.4-23.2,3.2-33.6,3.2
		c8.8,22.4,21.6,42.4,36.8,59.2c17.6-3.2,34.399-8.8,50.399-16c-25.6-9.601-47.2-24-47.2-24C319.2,284,368,236,368,236
		c17.6-17.6,9.6-1.6,8.8,2.4c-1.6,4.8-12.8,24-18.399,34.4c40-40,64-95.2,64-156c0-9.6-0.801-19.2-1.601-28.8
		C386.4,36.8,329.6,4.8,264.8,4.8C157.6,4.8,70.4,92,70.4,199.2c0,44.8,15.2,85.6,40,118.399c28,12.801,58.4,20,91.2,20
		C212,336.8,222.4,336,232,335.2z"/>
</g>
<g>
	<defs>
		<rect id="SVGID_27_" width="512" height="512"/>
	</defs>
	<clipPath id="SVGID_28_">
		<use xlink:href="#SVGID_27_"  overflow="visible"/>
	</clipPath>
	<path clip-path="url(#SVGID_28_)" fill-rule="evenodd" clip-rule="evenodd" fill="#EB1C2E" d="M258.4,47.2
		C196.8,62.4,172.8,156,196.8,242.4c0,0-8,0.8-19.2-2.4c-11.2-49.6-8-86.4,0.8-116c-47.2,8-58.4,34.4-64.8,44.8
		c16.8-56,67.2-69.6,67.2-69.6L165.6,76c-1.6-4-1.6-4.8,4-4.8C184,72,202.4,76,202.4,76c15.2-20,33.6-33.6,54.4-36.8
		c24-4,49.601,7.2,70.4,26.4C304.8,48.8,280.8,41.6,258.4,47.2z M296,111.2c-34.4-1.6-70.4,17.6-94.4,35.2
		C206.4,108,220.8,88,224.8,84C260,93.6,296,111.2,296,111.2z M264.8,4.8C162.4,4.8,79.2,84,71.2,184c7.2,10.4,16,20,25.6,28
		c-1.6-4.8-3.2-9.6-4-14.4c-4-20.8,6.4-44,23.2-62.4c-15.2,19.2-21.6,40-16.8,60.8c4,16,13.6,28.8,28.8,39.2
		c9.6,5.6,19.2,10.4,30.4,14.4c29.6,9.6,67.2,11.2,106.4,1.6c64-14.4,112-52.8,123.2-92c-0.8,5.6-3.2,11.2-5.6,16.8
		c6.399-10.4,12.8-21.6,17.6-32.8c-12-12-31.2-19.2-54.4-20c3.2,8,5.601,16.8,6.4,25.6c3.2,20,1.6,34.4,0,51.2c0,0-4.8,4.8-8,6.4
		c2.4-14.4,4-32,1.6-52c-0.8-10.4-4-21.6-8-32c-8.8,0-17.6,0.8-27.199,2.4c-41.601,8-76,32-84,56.8c3.2-28.8,50.4-58.4,97.6-65.6
		c4-0.8,7.2-0.8,10.4-0.8c-8.801-18.4-24-32.8-44.801-34.4c-8-0.8-14.399,1.6-17.6,3.2l-3.2-0.8c4-2.4,12-6.4,22.4-6.4
		c24,0,41.6,17.6,52,38.4c26.399,0,47.2,8,60,21.6c7.2-20,11.2-41.6,12-64C376.8,32,324,4.8,264.8,4.8z"/>
</g>
</svg>
